<svg xmlns="http://www.w3.org/2000/svg" width="91" height="90" viewBox="0 0 91 90"><g><g><path fill="#fff" d="M45.453-.06c24.853 0 45 20.147 45 45s-20.147 45-45 45-45-20.147-45-45 20.147-45 45-45z"/></g><g><path fill="#23c46e" d="M58.844 47.984H48.497v10.348a.61.61 0 0 1-.609.608h-4.87a.61.61 0 0 1-.608-.608V47.984H32.062a.609.609 0 0 1-.609-.609v-4.87c0-.336.273-.609.609-.609H42.41V31.55a.61.61 0 0 1 .608-.609h4.87a.61.61 0 0 1 .609.609v10.347h10.347c.337 0 .61.273.61.61v4.87a.608.608 0 0 1-.61.608z"/></g></g></svg>