<svg xmlns="http://www.w3.org/2000/svg" width="55" height="68" viewBox="0 0 55 68"><g><g><path fill="#84bc22" d="M30.9 7.987v.057c0 1.57-1.283 2.843-2.866 2.843H15.433c-1.583 0-2.866-1.273-2.866-2.843v-.057c0-1.57 1.283-2.843 2.866-2.843h1.486c.794 0 1.438-.639 1.438-1.426V3.67c0-1.829 1.494-3.312 3.338-3.312h.077c1.844 0 3.339 1.483 3.339 3.312v.048c0 .787.643 1.426 1.437 1.426h1.486c1.583 0 2.866 1.273 2.866 2.843zm-7.719-4.279c0-.792-.648-1.435-1.447-1.435-.8 0-1.448.643-1.448 1.435 0 .793.648 1.436 1.448 1.436.799 0 1.447-.643 1.447-1.436zm4.996 56.95H3.883c-2.131 0-3.86-1.714-3.86-3.828V10.887c0-2.114 1.729-3.829 2.895-3.829h7.82c-.065.318-.1.648-.1.987 0 2.622 2.15 4.756 4.795 4.756h12.601a4.794 4.794 0 0 0 4.701-5.743h5.884c3.097 0 4.825 1.715 4.825 3.829V39.65c-.321-.02-.64-.049-.965-.049-1.335 0-2.624.187-3.86.504V17.587H4.85v38.286h22.24a15.093 15.093 0 0 0 1.088 4.785zm26.845-5.742c0 6.871-5.616 12.442-12.543 12.442-6.928 0-12.544-5.57-12.544-12.442 0-6.873 5.616-12.443 12.544-12.443 6.927 0 12.543 5.57 12.543 12.443zm-4.507-5.26a1.94 1.94 0 0 0-2.724.159l-6.502 7.256-3.394-2.693a1.94 1.94 0 0 0-2.712.3c-.667.825-.531 2.03.3 2.69l4.825 3.828c.355.282.781.42 1.205.42.533 0 1.063-.218 1.443-.643l7.719-8.614c.708-.79.637-2-.16-2.703zm-16.72-15.798H8.708a.961.961 0 0 1-.965-.957v-.957c0-.528.432-.957.965-.957h25.087c.533 0 .965.429.965.957v.957a.961.961 0 0 1-.965.957zm0-8.614H8.708a.961.961 0 0 1-.965-.957v-.957c0-.529.432-.957.965-.957h25.087c.533 0 .965.428.965.957v.957a.961.961 0 0 1-.965.957zM28.97 41.515H8.708a.961.961 0 0 1-.965-.957v-.957c0-.528.432-.957.965-.957H28.97c.533 0 .965.429.965.957v.957a.961.961 0 0 1-.965.957zm-1.93 8.615H8.709a.961.961 0 0 1-.965-.957v-.957c0-.53.432-.958.965-.958H27.04c.532 0 .965.429.965.958v.957a.961.961 0 0 1-.965.957z"/></g></g></svg>