<svg xmlns="http://www.w3.org/2000/svg" width="60" height="68" viewBox="0 0 60 68"><g><g><path fill="#84bc22" d="M.805 12.006c-1.252-3.79.816-7.89 4.609-9.14 3.793-1.251 7.896.815 9.148 4.604l14.233 43.103a9.513 9.513 0 0 0-4.146-.157L10.87 8.687a3.356 3.356 0 0 0-6.374 2.101 1.944 1.944 0 0 1-3.692 1.217zm58.532 35.048a1.942 1.942 0 0 1-1.237 2.452l-22.6 7.451c-.014-.045-.023-.09-.037-.136a9.51 9.51 0 0 0-1.9-3.315l23.32-7.688a1.944 1.944 0 0 1 2.454 1.236zM33.617 57.43a7.628 7.628 0 0 1-4.859 9.635 7.637 7.637 0 0 1-9.643-4.855 7.628 7.628 0 0 1 4.859-9.635 7.637 7.637 0 0 1 9.643 4.855zm-3.625 1.195a3.818 3.818 0 0 0-7.251 2.39 3.818 3.818 0 0 0 7.25-2.39zM50.989 16.58l7.917 23.976a.97.97 0 0 1-.618 1.226l-24.919 8.215a.972.972 0 0 1-1.227-.618l-7.918-23.976a.97.97 0 0 1 .619-1.226l24.918-8.215a.972.972 0 0 1 1.228.618zm-3.296 13.927l-8.485-4.664-4.04 8.793 2.675 1.23 1.746-3.804 3.154 9.55 3.018-.995-3.153-9.548 3.668 2.017zm-7.8-13.52l-15.93 5.253a.622.622 0 0 1-.786-.395L18.116 6.517a.62.62 0 0 1 .395-.784l4.312-1.422.04.02.018-.039 2.29-.755 1.886 5.711 2.583-.852-1.886-5.71 2.29-.755.037.02.021-.04 4.34-1.43a.622.622 0 0 1 .785.395l5.062 15.329a.621.621 0 0 1-.395.784z"/></g></g></svg>