<svg xmlns="http://www.w3.org/2000/svg" width="62" height="60" viewBox="0 0 62 60"><g><g><path fill="#84bc22" d="M14.392 19.423l6.625 12.36-3.818-2.08-5.053 8.318c-2.807.038-5.812-.088-7.748-1.155-1.967-1.084-5.053-4.197-3.257-7.393l3.594-6.931-3.818-3.003zM9.9 39.739l16.395.116v14.44H17.65c-3.22.076-6.326-.425-7.973-2.542L1.478 36.505c2.545 2.85 5.877 3.388 8.422 3.234zm36.72-19.412l-13.95-.158 3.658-2.354-4.775-8.482c1.327-2.491 2.894-5.076 4.76-6.264 1.894-1.206 6.095-2.414 8 .717l4.28 6.525 4.46-1.906zM31.149 6.522L23.1 20.903l-12.543-7 4.192-7.615C16.242 3.416 18.184.924 20.822.5l17.22.174c-3.71.86-5.793 3.532-6.893 5.848zm.404 41.543l6.9-12.207.272 4.362 9.683-.093c1.52 2.377 3.006 5.01 3.133 7.228.13 2.253-.858 6.539-4.502 6.698l-7.742.605-.506 4.851zm19.492-6.93l-8.59-14.06 12.162-7.652 4.582 7.383c1.77 2.708 2.996 5.625 2.084 8.154l-8.5 15.08c1.052-3.684-.26-6.814-1.738-8.906z"/></g></g></svg>